<svg xmlns="http://www.w3.org/2000/svg" viewBox="0 0 1600 1100" width="1600" height="1100" role="img">
  <defs>
    <linearGradient id="g92" x1="0" y1="0" x2="0" y2="1">
      <stop offset="0%" stop-color="#F1EADD"/>
      <stop offset="100%" stop-color="#d9d3c7"/>
    </linearGradient>
    <linearGradient id="b92" x1="0.15" y1="0" x2="0.9" y2="1">
      <stop offset="0%" stop-color="#b89868"/>
      <stop offset="55%" stop-color="#B08D57"/>
      <stop offset="100%" stop-color="#8E6F42"/>
    </linearGradient>
    <radialGradient id="v92" cx="0.5" cy="0.42" r="0.78">
      <stop offset="55%" stop-color="#000000" stop-opacity="0"/>
      <stop offset="100%" stop-color="#2B2118" stop-opacity="0.30"/>
    </radialGradient>
    <filter id="n92" x="0" y="0" width="100%" height="100%">
      <feTurbulence type="fractalNoise" baseFrequency="0.85" numOctaves="4" seed="92" result="t"/>
      <feColorMatrix in="t" type="saturate" values="0"/>
      <feComponentTransfer><feFuncA type="linear" slope="0.62"/></feComponentTransfer>
    </filter>
    <filter id="s92" x="-30%" y="-30%" width="160%" height="160%">
      <feDropShadow dx="10" dy="18" stdDeviation="18" flood-color="#3B2E22" flood-opacity="0.22"/>
    </filter>
  </defs>
  <rect width="1600" height="1100" fill="url(#g92)"/>
  <rect x="26" y="26" width="1548" height="1048" fill="none" stroke="#dbcfbb" stroke-width="1"/>
  <rect x="0" y="0" width="1600" height="1100" fill="url(#b92)"/>
  <path d="M0,0 L1600,0" stroke="#8E6F42" stroke-opacity="0.10" stroke-width="7"/>
  <path d="M0,18 L1600,18" stroke="#8E6F42" stroke-opacity="0.10" stroke-width="7"/>
  <path d="M0,36 L1600,36" stroke="#8E6F42" stroke-opacity="0.10" stroke-width="7"/>
  <path d="M0,54 L1600,54" stroke="#8E6F42" stroke-opacity="0.10" stroke-width="7"/>
  <path d="M0,72 L1600,72" stroke="#8E6F42" stroke-opacity="0.10" stroke-width="7"/>
  <path d="M0,90 L1600,90" stroke="#8E6F42" stroke-opacity="0.10" stroke-width="7"/>
  <path d="M0,108 L1600,108" stroke="#8E6F42" stroke-opacity="0.10" stroke-width="7"/>
  <path d="M0,126 L1600,126" stroke="#8E6F42" stroke-opacity="0.10" stroke-width="7"/>
  <path d="M0,144 L1600,144" stroke="#8E6F42" stroke-opacity="0.10" stroke-width="7"/>
  <path d="M0,162 L1600,162" stroke="#8E6F42" stroke-opacity="0.10" stroke-width="7"/>
  <path d="M0,180 L1600,180" stroke="#8E6F42" stroke-opacity="0.10" stroke-width="7"/>
  <path d="M0,198 L1600,198" stroke="#8E6F42" stroke-opacity="0.10" stroke-width="7"/>
  <path d="M0,216 L1600,216" stroke="#8E6F42" stroke-opacity="0.10" stroke-width="7"/>
  <path d="M0,234 L1600,234" stroke="#8E6F42" stroke-opacity="0.10" stroke-width="7"/>
  <path d="M0,252 L1600,252" stroke="#8E6F42" stroke-opacity="0.10" stroke-width="7"/>
  <path d="M0,270 L1600,270" stroke="#8E6F42" stroke-opacity="0.10" stroke-width="7"/>
  <path d="M0,288 L1600,288" stroke="#8E6F42" stroke-opacity="0.10" stroke-width="7"/>
  <path d="M0,306 L1600,306" stroke="#8E6F42" stroke-opacity="0.10" stroke-width="7"/>
  <path d="M0,324 L1600,324" stroke="#8E6F42" stroke-opacity="0.10" stroke-width="7"/>
  <path d="M0,342 L1600,342" stroke="#8E6F42" stroke-opacity="0.10" stroke-width="7"/>
  <path d="M0,360 L1600,360" stroke="#8E6F42" stroke-opacity="0.10" stroke-width="7"/>
  <path d="M0,378 L1600,378" stroke="#8E6F42" stroke-opacity="0.10" stroke-width="7"/>
  <path d="M0,396 L1600,396" stroke="#8E6F42" stroke-opacity="0.10" stroke-width="7"/>
  <path d="M0,414 L1600,414" stroke="#8E6F42" stroke-opacity="0.10" stroke-width="7"/>
  <path d="M0,432 L1600,432" stroke="#8E6F42" stroke-opacity="0.10" stroke-width="7"/>
  <path d="M0,450 L1600,450" stroke="#8E6F42" stroke-opacity="0.10" stroke-width="7"/>
  <path d="M0,468 L1600,468" stroke="#8E6F42" stroke-opacity="0.10" stroke-width="7"/>
  <path d="M0,486 L1600,486" stroke="#8E6F42" stroke-opacity="0.10" stroke-width="7"/>
  <path d="M0,504 L1600,504" stroke="#8E6F42" stroke-opacity="0.10" stroke-width="7"/>
  <path d="M0,522 L1600,522" stroke="#8E6F42" stroke-opacity="0.10" stroke-width="7"/>
  <path d="M0,540 L1600,540" stroke="#8E6F42" stroke-opacity="0.10" stroke-width="7"/>
  <path d="M0,558 L1600,558" stroke="#8E6F42" stroke-opacity="0.10" stroke-width="7"/>
  <path d="M0,576 L1600,576" stroke="#8E6F42" stroke-opacity="0.10" stroke-width="7"/>
  <path d="M0,594 L1600,594" stroke="#8E6F42" stroke-opacity="0.10" stroke-width="7"/>
  <path d="M0,612 L1600,612" stroke="#8E6F42" stroke-opacity="0.10" stroke-width="7"/>
  <path d="M0,630 L1600,630" stroke="#8E6F42" stroke-opacity="0.10" stroke-width="7"/>
  <path d="M0,648 L1600,648" stroke="#8E6F42" stroke-opacity="0.10" stroke-width="7"/>
  <path d="M0,666 L1600,666" stroke="#8E6F42" stroke-opacity="0.10" stroke-width="7"/>
  <path d="M0,684 L1600,684" stroke="#8E6F42" stroke-opacity="0.10" stroke-width="7"/>
  <path d="M0,702 L1600,702" stroke="#8E6F42" stroke-opacity="0.10" stroke-width="7"/>
  <path d="M0,720 L1600,720" stroke="#8E6F42" stroke-opacity="0.10" stroke-width="7"/>
  <path d="M0,738 L1600,738" stroke="#8E6F42" stroke-opacity="0.10" stroke-width="7"/>
  <path d="M0,756 L1600,756" stroke="#8E6F42" stroke-opacity="0.10" stroke-width="7"/>
  <path d="M0,774 L1600,774" stroke="#8E6F42" stroke-opacity="0.10" stroke-width="7"/>
  <path d="M0,792 L1600,792" stroke="#8E6F42" stroke-opacity="0.10" stroke-width="7"/>
  <path d="M0,810 L1600,810" stroke="#8E6F42" stroke-opacity="0.10" stroke-width="7"/>
  <path d="M0,828 L1600,828" stroke="#8E6F42" stroke-opacity="0.10" stroke-width="7"/>
  <path d="M0,846 L1600,846" stroke="#8E6F42" stroke-opacity="0.10" stroke-width="7"/>
  <path d="M0,864 L1600,864" stroke="#8E6F42" stroke-opacity="0.10" stroke-width="7"/>
  <path d="M0,882 L1600,882" stroke="#8E6F42" stroke-opacity="0.10" stroke-width="7"/>
  <path d="M0,900 L1600,900" stroke="#8E6F42" stroke-opacity="0.10" stroke-width="7"/>
  <path d="M0,918 L1600,918" stroke="#8E6F42" stroke-opacity="0.10" stroke-width="7"/>
  <path d="M0,936 L1600,936" stroke="#8E6F42" stroke-opacity="0.10" stroke-width="7"/>
  <path d="M0,954 L1600,954" stroke="#8E6F42" stroke-opacity="0.10" stroke-width="7"/>
  <path d="M0,972 L1600,972" stroke="#8E6F42" stroke-opacity="0.10" stroke-width="7"/>
  <path d="M0,990 L1600,990" stroke="#8E6F42" stroke-opacity="0.10" stroke-width="7"/>
  <path d="M0,1008 L1600,1008" stroke="#8E6F42" stroke-opacity="0.10" stroke-width="7"/>
  <path d="M0,1026 L1600,1026" stroke="#8E6F42" stroke-opacity="0.10" stroke-width="7"/>
  <path d="M0,1044 L1600,1044" stroke="#8E6F42" stroke-opacity="0.10" stroke-width="7"/>
  <path d="M0,1062 L1600,1062" stroke="#8E6F42" stroke-opacity="0.10" stroke-width="7"/>
  <path d="M160,792 C560,550 1040,1012 1600,660" stroke="#F1EADD" stroke-opacity="0.35" stroke-width="42" fill="none"/>
  <circle cx="544" cy="605" r="54" fill="#3F3A33"/>
  <circle cx="544" cy="605" r="54" fill="none" stroke="#8E6F42" stroke-opacity="0.45" stroke-width="4"/>
  <circle cx="544" cy="605" r="30" fill="none" stroke="#8E6F42" stroke-opacity="0.3" stroke-width="3"/>
  <circle cx="533" cy="594" r="5" fill="#8E6F42" fill-opacity="0.6"/>
  <circle cx="555" cy="594" r="5" fill="#8E6F42" fill-opacity="0.6"/>
  <circle cx="533" cy="616" r="5" fill="#8E6F42" fill-opacity="0.6"/>
  <circle cx="555" cy="616" r="5" fill="#8E6F42" fill-opacity="0.6"/>
  <circle cx="832" cy="682" r="54" fill="#3F3A33"/>
  <circle cx="832" cy="682" r="54" fill="none" stroke="#8E6F42" stroke-opacity="0.45" stroke-width="4"/>
  <circle cx="832" cy="682" r="30" fill="none" stroke="#8E6F42" stroke-opacity="0.3" stroke-width="3"/>
  <circle cx="821" cy="671" r="5" fill="#8E6F42" fill-opacity="0.6"/>
  <circle cx="843" cy="671" r="5" fill="#8E6F42" fill-opacity="0.6"/>
  <circle cx="821" cy="693" r="5" fill="#8E6F42" fill-opacity="0.6"/>
  <circle cx="843" cy="693" r="5" fill="#8E6F42" fill-opacity="0.6"/>
  <circle cx="1120" cy="726" r="54" fill="#3F3A33"/>
  <circle cx="1120" cy="726" r="54" fill="none" stroke="#8E6F42" stroke-opacity="0.45" stroke-width="4"/>
  <circle cx="1120" cy="726" r="30" fill="none" stroke="#8E6F42" stroke-opacity="0.3" stroke-width="3"/>
  <circle cx="1109" cy="715" r="5" fill="#8E6F42" fill-opacity="0.6"/>
  <circle cx="1131" cy="715" r="5" fill="#8E6F42" fill-opacity="0.6"/>
  <circle cx="1109" cy="737" r="5" fill="#8E6F42" fill-opacity="0.6"/>
  <circle cx="1131" cy="737" r="5" fill="#8E6F42" fill-opacity="0.6"/>

  <rect width="1600" height="1100" fill="url(#v92)"/>
  <rect width="1600" height="1100" filter="url(#n92)" opacity="0.14" style="mix-blend-mode:multiply"/>
</svg>
