<svg xmlns="http://www.w3.org/2000/svg" viewBox="0 0 800 1000" width="800" height="1000" role="img">
  <defs>
    <linearGradient id="g110" x1="0" y1="0" x2="0" y2="1">
      <stop offset="0%" stop-color="#EFE6DA"/>
      <stop offset="100%" stop-color="#d7cfc4"/>
    </linearGradient>
    <linearGradient id="b110" x1="0.15" y1="0" x2="0.9" y2="1">
      <stop offset="0%" stop-color="#7a3d4b"/>
      <stop offset="55%" stop-color="#6B2737"/>
      <stop offset="100%" stop-color="#54202C"/>
    </linearGradient>
    <radialGradient id="v110" cx="0.5" cy="0.42" r="0.78">
      <stop offset="55%" stop-color="#000000" stop-opacity="0"/>
      <stop offset="100%" stop-color="#2B2118" stop-opacity="0.30"/>
    </radialGradient>
    <filter id="n110" x="0" y="0" width="100%" height="100%">
      <feTurbulence type="fractalNoise" baseFrequency="0.85" numOctaves="4" seed="110" result="t"/>
      <feColorMatrix in="t" type="saturate" values="0"/>
      <feComponentTransfer><feFuncA type="linear" slope="0.62"/></feComponentTransfer>
    </filter>
    <filter id="s110" x="-30%" y="-30%" width="160%" height="160%">
      <feDropShadow dx="10" dy="18" stdDeviation="18" flood-color="#3B2E22" flood-opacity="0.22"/>
    </filter>
  </defs>
  <rect width="800" height="1000" fill="url(#g110)"/>
  <rect x="26" y="26" width="748" height="948" fill="none" stroke="#cdbab4" stroke-width="1"/>
  <rect x="26" y="26" width="748" height="948" fill="url(#b110)"/>
  <circle cx="367" cy="156" r="32" fill="none" stroke="#54202C" stroke-opacity="0.16" stroke-width="2"/>
  <circle cx="308" cy="935" r="30" fill="none" stroke="#54202C" stroke-opacity="0.16" stroke-width="2"/>
  <circle cx="485" cy="646" r="23" fill="none" stroke="#54202C" stroke-opacity="0.16" stroke-width="2"/>
  <circle cx="124" cy="205" r="50" fill="none" stroke="#54202C" stroke-opacity="0.16" stroke-width="2"/>
  <circle cx="385" cy="786" r="20" fill="none" stroke="#54202C" stroke-opacity="0.16" stroke-width="2"/>
  <circle cx="87" cy="575" r="29" fill="none" stroke="#54202C" stroke-opacity="0.16" stroke-width="2"/>
  <circle cx="501" cy="372" r="20" fill="none" stroke="#54202C" stroke-opacity="0.16" stroke-width="2"/>
  <circle cx="620" cy="302" r="49" fill="none" stroke="#54202C" stroke-opacity="0.16" stroke-width="2"/>
  <circle cx="701" cy="336" r="46" fill="none" stroke="#54202C" stroke-opacity="0.16" stroke-width="2"/>
  <circle cx="81" cy="660" r="20" fill="none" stroke="#54202C" stroke-opacity="0.16" stroke-width="2"/>
  <circle cx="103" cy="967" r="30" fill="none" stroke="#54202C" stroke-opacity="0.16" stroke-width="2"/>
  <circle cx="665" cy="102" r="55" fill="none" stroke="#54202C" stroke-opacity="0.16" stroke-width="2"/>
  <circle cx="703" cy="257" r="21" fill="none" stroke="#54202C" stroke-opacity="0.16" stroke-width="2"/>
  <circle cx="393" cy="776" r="22" fill="none" stroke="#54202C" stroke-opacity="0.16" stroke-width="2"/>
  <circle cx="224" cy="479" r="19" fill="none" stroke="#54202C" stroke-opacity="0.16" stroke-width="2"/>
  <circle cx="379" cy="341" r="33" fill="none" stroke="#54202C" stroke-opacity="0.16" stroke-width="2"/>
  <circle cx="196" cy="191" r="24" fill="none" stroke="#54202C" stroke-opacity="0.16" stroke-width="2"/>
  <circle cx="180" cy="438" r="35" fill="none" stroke="#54202C" stroke-opacity="0.16" stroke-width="2"/>
  <circle cx="390" cy="285" r="25" fill="none" stroke="#54202C" stroke-opacity="0.16" stroke-width="2"/>
  <circle cx="48" cy="197" r="49" fill="none" stroke="#54202C" stroke-opacity="0.16" stroke-width="2"/>
  <circle cx="150" cy="572" r="27" fill="none" stroke="#54202C" stroke-opacity="0.16" stroke-width="2"/>
  <circle cx="518" cy="668" r="26" fill="none" stroke="#54202C" stroke-opacity="0.16" stroke-width="2"/>
  <circle cx="640" cy="215" r="19" fill="none" stroke="#54202C" stroke-opacity="0.16" stroke-width="2"/>
  <circle cx="317" cy="840" r="50" fill="none" stroke="#54202C" stroke-opacity="0.16" stroke-width="2"/>
  <circle cx="50" cy="843" r="53" fill="none" stroke="#54202C" stroke-opacity="0.16" stroke-width="2"/>
  <circle cx="347" cy="840" r="33" fill="none" stroke="#54202C" stroke-opacity="0.16" stroke-width="2"/>
  <circle cx="120" cy="344" r="27" fill="none" stroke="#54202C" stroke-opacity="0.16" stroke-width="2"/>
  <circle cx="596" cy="566" r="39" fill="none" stroke="#54202C" stroke-opacity="0.16" stroke-width="2"/>
  <circle cx="390" cy="548" r="39" fill="none" stroke="#54202C" stroke-opacity="0.16" stroke-width="2"/>
  <circle cx="214" cy="519" r="43" fill="none" stroke="#54202C" stroke-opacity="0.16" stroke-width="2"/>
  <circle cx="452" cy="484" r="18" fill="none" stroke="#54202C" stroke-opacity="0.16" stroke-width="2"/>
  <circle cx="215" cy="818" r="32" fill="none" stroke="#54202C" stroke-opacity="0.16" stroke-width="2"/>
  <circle cx="718" cy="596" r="56" fill="none" stroke="#54202C" stroke-opacity="0.16" stroke-width="2"/>
  <circle cx="238" cy="896" r="38" fill="none" stroke="#54202C" stroke-opacity="0.16" stroke-width="2"/>
  <circle cx="398" cy="856" r="30" fill="none" stroke="#54202C" stroke-opacity="0.16" stroke-width="2"/>
  <circle cx="732" cy="791" r="35" fill="none" stroke="#54202C" stroke-opacity="0.16" stroke-width="2"/>
  <circle cx="295" cy="733" r="28" fill="none" stroke="#54202C" stroke-opacity="0.16" stroke-width="2"/>
  <circle cx="454" cy="431" r="34" fill="none" stroke="#54202C" stroke-opacity="0.16" stroke-width="2"/>
  <circle cx="309" cy="789" r="35" fill="none" stroke="#54202C" stroke-opacity="0.16" stroke-width="2"/>
  <circle cx="478" cy="657" r="55" fill="none" stroke="#54202C" stroke-opacity="0.16" stroke-width="2"/>
  <circle cx="524" cy="647" r="43" fill="none" stroke="#54202C" stroke-opacity="0.16" stroke-width="2"/>
  <circle cx="85" cy="160" r="50" fill="none" stroke="#54202C" stroke-opacity="0.16" stroke-width="2"/>
  <circle cx="94" cy="743" r="51" fill="none" stroke="#54202C" stroke-opacity="0.16" stroke-width="2"/>
  <circle cx="143" cy="157" r="38" fill="none" stroke="#54202C" stroke-opacity="0.16" stroke-width="2"/>
  <circle cx="305" cy="906" r="48" fill="none" stroke="#54202C" stroke-opacity="0.16" stroke-width="2"/>
  <circle cx="635" cy="40" r="25" fill="none" stroke="#54202C" stroke-opacity="0.16" stroke-width="2"/>
  <circle cx="224" cy="591" r="19" fill="none" stroke="#54202C" stroke-opacity="0.16" stroke-width="2"/>
  <circle cx="168" cy="892" r="55" fill="none" stroke="#54202C" stroke-opacity="0.16" stroke-width="2"/>
  <circle cx="184" cy="518" r="28" fill="none" stroke="#54202C" stroke-opacity="0.16" stroke-width="2"/>
  <circle cx="505" cy="970" r="38" fill="none" stroke="#54202C" stroke-opacity="0.16" stroke-width="2"/>
  <circle cx="31" cy="747" r="49" fill="none" stroke="#54202C" stroke-opacity="0.16" stroke-width="2"/>
  <circle cx="749" cy="129" r="56" fill="none" stroke="#54202C" stroke-opacity="0.16" stroke-width="2"/>
  <circle cx="618" cy="410" r="24" fill="none" stroke="#54202C" stroke-opacity="0.16" stroke-width="2"/>
  <circle cx="315" cy="835" r="31" fill="none" stroke="#54202C" stroke-opacity="0.16" stroke-width="2"/>
  <circle cx="73" cy="779" r="34" fill="none" stroke="#54202C" stroke-opacity="0.16" stroke-width="2"/>
  <circle cx="426" cy="178" r="22" fill="none" stroke="#54202C" stroke-opacity="0.16" stroke-width="2"/>
  <circle cx="748" cy="400" r="36" fill="none" stroke="#54202C" stroke-opacity="0.16" stroke-width="2"/>
  <circle cx="353" cy="439" r="20" fill="none" stroke="#54202C" stroke-opacity="0.16" stroke-width="2"/>
  <circle cx="48" cy="670" r="35" fill="none" stroke="#54202C" stroke-opacity="0.16" stroke-width="2"/>
  <circle cx="374" cy="734" r="33" fill="none" stroke="#54202C" stroke-opacity="0.16" stroke-width="2"/>
  <circle cx="437" cy="891" r="54" fill="none" stroke="#54202C" stroke-opacity="0.16" stroke-width="2"/>
  <circle cx="437" cy="529" r="53" fill="none" stroke="#54202C" stroke-opacity="0.16" stroke-width="2"/>
  <circle cx="136" cy="722" r="18" fill="none" stroke="#54202C" stroke-opacity="0.16" stroke-width="2"/>
  <circle cx="261" cy="455" r="39" fill="none" stroke="#54202C" stroke-opacity="0.16" stroke-width="2"/>
  <circle cx="250" cy="262" r="52" fill="none" stroke="#54202C" stroke-opacity="0.16" stroke-width="2"/>
  <circle cx="522" cy="124" r="34" fill="none" stroke="#54202C" stroke-opacity="0.16" stroke-width="2"/>
  <circle cx="240" cy="318" r="26" fill="none" stroke="#54202C" stroke-opacity="0.16" stroke-width="2"/>
  <circle cx="663" cy="121" r="33" fill="none" stroke="#54202C" stroke-opacity="0.16" stroke-width="2"/>
  <circle cx="387" cy="34" r="50" fill="none" stroke="#54202C" stroke-opacity="0.16" stroke-width="2"/>
  <circle cx="363" cy="881" r="42" fill="none" stroke="#54202C" stroke-opacity="0.16" stroke-width="2"/>
  <circle cx="234" cy="873" r="39" fill="none" stroke="#54202C" stroke-opacity="0.16" stroke-width="2"/>
  <circle cx="156" cy="385" r="18" fill="none" stroke="#54202C" stroke-opacity="0.16" stroke-width="2"/>
  <circle cx="410" cy="468" r="53" fill="none" stroke="#54202C" stroke-opacity="0.16" stroke-width="2"/>
  <circle cx="398" cy="426" r="23" fill="none" stroke="#54202C" stroke-opacity="0.16" stroke-width="2"/>
  <circle cx="662" cy="935" r="29" fill="none" stroke="#54202C" stroke-opacity="0.16" stroke-width="2"/>
  <circle cx="211" cy="858" r="18" fill="none" stroke="#54202C" stroke-opacity="0.16" stroke-width="2"/>
  <circle cx="414" cy="784" r="52" fill="none" stroke="#54202C" stroke-opacity="0.16" stroke-width="2"/>
  <circle cx="159" cy="696" r="18" fill="none" stroke="#54202C" stroke-opacity="0.16" stroke-width="2"/>
  <circle cx="146" cy="680" r="40" fill="none" stroke="#54202C" stroke-opacity="0.16" stroke-width="2"/>
  <circle cx="724" cy="180" r="50" fill="none" stroke="#54202C" stroke-opacity="0.16" stroke-width="2"/>
  <circle cx="407" cy="754" r="32" fill="none" stroke="#54202C" stroke-opacity="0.16" stroke-width="2"/>
  <circle cx="555" cy="621" r="27" fill="none" stroke="#54202C" stroke-opacity="0.16" stroke-width="2"/>
  <circle cx="544" cy="437" r="34" fill="none" stroke="#54202C" stroke-opacity="0.16" stroke-width="2"/>
  <circle cx="679" cy="316" r="22" fill="none" stroke="#54202C" stroke-opacity="0.16" stroke-width="2"/>
  <circle cx="402" cy="954" r="23" fill="none" stroke="#54202C" stroke-opacity="0.16" stroke-width="2"/>
  <circle cx="425" cy="930" r="28" fill="none" stroke="#54202C" stroke-opacity="0.16" stroke-width="2"/>
  <circle cx="453" cy="651" r="24" fill="none" stroke="#54202C" stroke-opacity="0.16" stroke-width="2"/>
  <circle cx="128" cy="843" r="37" fill="none" stroke="#54202C" stroke-opacity="0.16" stroke-width="2"/>
  <circle cx="559" cy="606" r="55" fill="none" stroke="#54202C" stroke-opacity="0.16" stroke-width="2"/>
  <circle cx="614" cy="181" r="44" fill="none" stroke="#54202C" stroke-opacity="0.16" stroke-width="2"/>
  <circle cx="369" cy="692" r="44" fill="none" stroke="#54202C" stroke-opacity="0.16" stroke-width="2"/>
  <circle cx="498" cy="223" r="21" fill="none" stroke="#54202C" stroke-opacity="0.16" stroke-width="2"/>
  <circle cx="177" cy="719" r="44" fill="none" stroke="#54202C" stroke-opacity="0.16" stroke-width="2"/>
  <circle cx="240" cy="746" r="54" fill="none" stroke="#54202C" stroke-opacity="0.16" stroke-width="2"/>
  <circle cx="243" cy="741" r="40" fill="none" stroke="#54202C" stroke-opacity="0.16" stroke-width="2"/>
  <circle cx="119" cy="852" r="39" fill="none" stroke="#54202C" stroke-opacity="0.16" stroke-width="2"/>
  <circle cx="138" cy="536" r="50" fill="none" stroke="#54202C" stroke-opacity="0.16" stroke-width="2"/>
  <circle cx="215" cy="128" r="19" fill="none" stroke="#54202C" stroke-opacity="0.16" stroke-width="2"/>
  <circle cx="738" cy="747" r="35" fill="none" stroke="#54202C" stroke-opacity="0.16" stroke-width="2"/>
  <circle cx="46" cy="714" r="38" fill="none" stroke="#54202C" stroke-opacity="0.16" stroke-width="2"/>
  <circle cx="271" cy="820" r="50" fill="none" stroke="#54202C" stroke-opacity="0.16" stroke-width="2"/>
  <circle cx="664" cy="665" r="44" fill="none" stroke="#54202C" stroke-opacity="0.16" stroke-width="2"/>
  <circle cx="118" cy="51" r="29" fill="none" stroke="#54202C" stroke-opacity="0.16" stroke-width="2"/>
  <circle cx="118" cy="735" r="39" fill="none" stroke="#54202C" stroke-opacity="0.16" stroke-width="2"/>
  <circle cx="371" cy="41" r="50" fill="none" stroke="#54202C" stroke-opacity="0.16" stroke-width="2"/>
  <circle cx="238" cy="430" r="30" fill="none" stroke="#54202C" stroke-opacity="0.16" stroke-width="2"/>
  <circle cx="439" cy="269" r="25" fill="none" stroke="#54202C" stroke-opacity="0.16" stroke-width="2"/>
  <circle cx="753" cy="98" r="39" fill="none" stroke="#54202C" stroke-opacity="0.16" stroke-width="2"/>
  <circle cx="268" cy="813" r="43" fill="none" stroke="#54202C" stroke-opacity="0.16" stroke-width="2"/>
  <circle cx="196" cy="369" r="55" fill="none" stroke="#54202C" stroke-opacity="0.16" stroke-width="2"/>
  <circle cx="461" cy="808" r="53" fill="none" stroke="#54202C" stroke-opacity="0.16" stroke-width="2"/>
  <circle cx="379" cy="179" r="32" fill="none" stroke="#54202C" stroke-opacity="0.16" stroke-width="2"/>
  <circle cx="157" cy="91" r="37" fill="none" stroke="#54202C" stroke-opacity="0.16" stroke-width="2"/>
  <circle cx="238" cy="49" r="27" fill="none" stroke="#54202C" stroke-opacity="0.16" stroke-width="2"/>
  <circle cx="280" cy="46" r="45" fill="none" stroke="#54202C" stroke-opacity="0.16" stroke-width="2"/>
  <circle cx="74" cy="195" r="29" fill="none" stroke="#54202C" stroke-opacity="0.16" stroke-width="2"/>
  <circle cx="346" cy="349" r="27" fill="none" stroke="#54202C" stroke-opacity="0.16" stroke-width="2"/>
  <circle cx="259" cy="221" r="33" fill="none" stroke="#54202C" stroke-opacity="0.16" stroke-width="2"/>
  <circle cx="525" cy="749" r="44" fill="none" stroke="#54202C" stroke-opacity="0.16" stroke-width="2"/>
  <circle cx="459" cy="750" r="21" fill="none" stroke="#54202C" stroke-opacity="0.16" stroke-width="2"/>
  <circle cx="451" cy="790" r="26" fill="none" stroke="#54202C" stroke-opacity="0.16" stroke-width="2"/>
  <circle cx="714" cy="273" r="33" fill="none" stroke="#54202C" stroke-opacity="0.16" stroke-width="2"/>
  <circle cx="682" cy="711" r="54" fill="none" stroke="#54202C" stroke-opacity="0.16" stroke-width="2"/>
  <circle cx="491" cy="217" r="51" fill="none" stroke="#54202C" stroke-opacity="0.16" stroke-width="2"/>
  <circle cx="559" cy="361" r="18" fill="none" stroke="#54202C" stroke-opacity="0.16" stroke-width="2"/>
  <circle cx="192" cy="624" r="26" fill="none" stroke="#54202C" stroke-opacity="0.16" stroke-width="2"/>
  <circle cx="186" cy="228" r="23" fill="none" stroke="#54202C" stroke-opacity="0.16" stroke-width="2"/>
  <circle cx="139" cy="942" r="22" fill="none" stroke="#54202C" stroke-opacity="0.16" stroke-width="2"/>
  <circle cx="96" cy="356" r="41" fill="none" stroke="#54202C" stroke-opacity="0.16" stroke-width="2"/>
  <circle cx="676" cy="949" r="31" fill="none" stroke="#54202C" stroke-opacity="0.16" stroke-width="2"/>
  <circle cx="129" cy="776" r="24" fill="none" stroke="#54202C" stroke-opacity="0.16" stroke-width="2"/>
  <circle cx="355" cy="784" r="45" fill="none" stroke="#54202C" stroke-opacity="0.16" stroke-width="2"/>
  <circle cx="429" cy="199" r="52" fill="none" stroke="#54202C" stroke-opacity="0.16" stroke-width="2"/>
  <circle cx="592" cy="378" r="20" fill="none" stroke="#54202C" stroke-opacity="0.16" stroke-width="2"/>
  <circle cx="707" cy="708" r="26" fill="none" stroke="#54202C" stroke-opacity="0.16" stroke-width="2"/>
  <circle cx="438" cy="875" r="47" fill="none" stroke="#54202C" stroke-opacity="0.16" stroke-width="2"/>
  <circle cx="343" cy="634" r="25" fill="none" stroke="#54202C" stroke-opacity="0.16" stroke-width="2"/>
  <circle cx="344" cy="335" r="25" fill="none" stroke="#54202C" stroke-opacity="0.16" stroke-width="2"/>
  <circle cx="755" cy="833" r="56" fill="none" stroke="#54202C" stroke-opacity="0.16" stroke-width="2"/>
  <circle cx="351" cy="794" r="31" fill="none" stroke="#54202C" stroke-opacity="0.16" stroke-width="2"/>
  <circle cx="534" cy="407" r="56" fill="none" stroke="#54202C" stroke-opacity="0.16" stroke-width="2"/>
  <circle cx="415" cy="781" r="21" fill="none" stroke="#54202C" stroke-opacity="0.16" stroke-width="2"/>
  <circle cx="421" cy="831" r="47" fill="none" stroke="#54202C" stroke-opacity="0.16" stroke-width="2"/>
  <circle cx="682" cy="681" r="32" fill="none" stroke="#54202C" stroke-opacity="0.16" stroke-width="2"/>
  <circle cx="198" cy="678" r="35" fill="none" stroke="#54202C" stroke-opacity="0.16" stroke-width="2"/>
  <circle cx="468" cy="794" r="22" fill="none" stroke="#54202C" stroke-opacity="0.16" stroke-width="2"/>
  <circle cx="316" cy="759" r="43" fill="none" stroke="#54202C" stroke-opacity="0.16" stroke-width="2"/>
  <circle cx="427" cy="251" r="28" fill="none" stroke="#54202C" stroke-opacity="0.16" stroke-width="2"/>
  <circle cx="451" cy="601" r="42" fill="none" stroke="#54202C" stroke-opacity="0.16" stroke-width="2"/>
  <circle cx="106" cy="360" r="37" fill="none" stroke="#54202C" stroke-opacity="0.16" stroke-width="2"/>

  <rect width="800" height="1000" fill="url(#v110)"/>
  <rect width="800" height="1000" filter="url(#n110)" opacity="0.14" style="mix-blend-mode:multiply"/>
</svg>
