<svg xmlns="http://www.w3.org/2000/svg" viewBox="0 0 800 1000" width="800" height="1000" role="img">
  <defs>
    <linearGradient id="g103" x1="0" y1="0" x2="0" y2="1">
      <stop offset="0%" stop-color="#EFE6DA"/>
      <stop offset="100%" stop-color="#d7cfc4"/>
    </linearGradient>
    <linearGradient id="b103" x1="0.15" y1="0" x2="0.9" y2="1">
      <stop offset="0%" stop-color="#7a3d4b"/>
      <stop offset="55%" stop-color="#6B2737"/>
      <stop offset="100%" stop-color="#54202C"/>
    </linearGradient>
    <radialGradient id="v103" cx="0.5" cy="0.42" r="0.78">
      <stop offset="55%" stop-color="#000000" stop-opacity="0"/>
      <stop offset="100%" stop-color="#2B2118" stop-opacity="0.30"/>
    </radialGradient>
    <filter id="n103" x="0" y="0" width="100%" height="100%">
      <feTurbulence type="fractalNoise" baseFrequency="0.85" numOctaves="4" seed="103" result="t"/>
      <feColorMatrix in="t" type="saturate" values="0"/>
      <feComponentTransfer><feFuncA type="linear" slope="0.62"/></feComponentTransfer>
    </filter>
    <filter id="s103" x="-30%" y="-30%" width="160%" height="160%">
      <feDropShadow dx="10" dy="18" stdDeviation="18" flood-color="#3B2E22" flood-opacity="0.22"/>
    </filter>
  </defs>
  <rect width="800" height="1000" fill="url(#g103)"/>
  <rect x="26" y="26" width="748" height="948" fill="none" stroke="#cdbab4" stroke-width="1"/>
  <rect x="26" y="26" width="748" height="948" fill="url(#b103)"/>
  <circle cx="36" cy="935" r="40" fill="none" stroke="#54202C" stroke-opacity="0.16" stroke-width="2"/>
  <circle cx="252" cy="176" r="43" fill="none" stroke="#54202C" stroke-opacity="0.16" stroke-width="2"/>
  <circle cx="197" cy="335" r="39" fill="none" stroke="#54202C" stroke-opacity="0.16" stroke-width="2"/>
  <circle cx="735" cy="205" r="34" fill="none" stroke="#54202C" stroke-opacity="0.16" stroke-width="2"/>
  <circle cx="654" cy="98" r="46" fill="none" stroke="#54202C" stroke-opacity="0.16" stroke-width="2"/>
  <circle cx="375" cy="959" r="41" fill="none" stroke="#54202C" stroke-opacity="0.16" stroke-width="2"/>
  <circle cx="116" cy="194" r="46" fill="none" stroke="#54202C" stroke-opacity="0.16" stroke-width="2"/>
  <circle cx="660" cy="722" r="20" fill="none" stroke="#54202C" stroke-opacity="0.16" stroke-width="2"/>
  <circle cx="314" cy="439" r="49" fill="none" stroke="#54202C" stroke-opacity="0.16" stroke-width="2"/>
  <circle cx="676" cy="427" r="32" fill="none" stroke="#54202C" stroke-opacity="0.16" stroke-width="2"/>
  <circle cx="340" cy="208" r="41" fill="none" stroke="#54202C" stroke-opacity="0.16" stroke-width="2"/>
  <circle cx="729" cy="711" r="48" fill="none" stroke="#54202C" stroke-opacity="0.16" stroke-width="2"/>
  <circle cx="346" cy="283" r="29" fill="none" stroke="#54202C" stroke-opacity="0.16" stroke-width="2"/>
  <circle cx="286" cy="916" r="50" fill="none" stroke="#54202C" stroke-opacity="0.16" stroke-width="2"/>
  <circle cx="620" cy="520" r="37" fill="none" stroke="#54202C" stroke-opacity="0.16" stroke-width="2"/>
  <circle cx="474" cy="418" r="55" fill="none" stroke="#54202C" stroke-opacity="0.16" stroke-width="2"/>
  <circle cx="628" cy="958" r="32" fill="none" stroke="#54202C" stroke-opacity="0.16" stroke-width="2"/>
  <circle cx="96" cy="258" r="47" fill="none" stroke="#54202C" stroke-opacity="0.16" stroke-width="2"/>
  <circle cx="517" cy="302" r="30" fill="none" stroke="#54202C" stroke-opacity="0.16" stroke-width="2"/>
  <circle cx="264" cy="782" r="40" fill="none" stroke="#54202C" stroke-opacity="0.16" stroke-width="2"/>
  <circle cx="532" cy="639" r="44" fill="none" stroke="#54202C" stroke-opacity="0.16" stroke-width="2"/>
  <circle cx="245" cy="596" r="52" fill="none" stroke="#54202C" stroke-opacity="0.16" stroke-width="2"/>
  <circle cx="713" cy="382" r="51" fill="none" stroke="#54202C" stroke-opacity="0.16" stroke-width="2"/>
  <circle cx="655" cy="698" r="18" fill="none" stroke="#54202C" stroke-opacity="0.16" stroke-width="2"/>
  <circle cx="384" cy="650" r="27" fill="none" stroke="#54202C" stroke-opacity="0.16" stroke-width="2"/>
  <circle cx="264" cy="908" r="32" fill="none" stroke="#54202C" stroke-opacity="0.16" stroke-width="2"/>
  <circle cx="735" cy="966" r="32" fill="none" stroke="#54202C" stroke-opacity="0.16" stroke-width="2"/>
  <circle cx="132" cy="692" r="37" fill="none" stroke="#54202C" stroke-opacity="0.16" stroke-width="2"/>
  <circle cx="769" cy="530" r="52" fill="none" stroke="#54202C" stroke-opacity="0.16" stroke-width="2"/>
  <circle cx="381" cy="290" r="48" fill="none" stroke="#54202C" stroke-opacity="0.16" stroke-width="2"/>
  <circle cx="204" cy="88" r="32" fill="none" stroke="#54202C" stroke-opacity="0.16" stroke-width="2"/>
  <circle cx="755" cy="393" r="48" fill="none" stroke="#54202C" stroke-opacity="0.16" stroke-width="2"/>
  <circle cx="81" cy="272" r="49" fill="none" stroke="#54202C" stroke-opacity="0.16" stroke-width="2"/>
  <circle cx="41" cy="857" r="29" fill="none" stroke="#54202C" stroke-opacity="0.16" stroke-width="2"/>
  <circle cx="64" cy="699" r="44" fill="none" stroke="#54202C" stroke-opacity="0.16" stroke-width="2"/>
  <circle cx="451" cy="236" r="23" fill="none" stroke="#54202C" stroke-opacity="0.16" stroke-width="2"/>
  <circle cx="754" cy="830" r="28" fill="none" stroke="#54202C" stroke-opacity="0.16" stroke-width="2"/>
  <circle cx="244" cy="661" r="48" fill="none" stroke="#54202C" stroke-opacity="0.16" stroke-width="2"/>
  <circle cx="127" cy="736" r="33" fill="none" stroke="#54202C" stroke-opacity="0.16" stroke-width="2"/>
  <circle cx="456" cy="568" r="42" fill="none" stroke="#54202C" stroke-opacity="0.16" stroke-width="2"/>
  <circle cx="489" cy="531" r="48" fill="none" stroke="#54202C" stroke-opacity="0.16" stroke-width="2"/>
  <circle cx="753" cy="871" r="33" fill="none" stroke="#54202C" stroke-opacity="0.16" stroke-width="2"/>
  <circle cx="739" cy="554" r="34" fill="none" stroke="#54202C" stroke-opacity="0.16" stroke-width="2"/>
  <circle cx="592" cy="545" r="47" fill="none" stroke="#54202C" stroke-opacity="0.16" stroke-width="2"/>
  <circle cx="173" cy="881" r="37" fill="none" stroke="#54202C" stroke-opacity="0.16" stroke-width="2"/>
  <circle cx="180" cy="103" r="56" fill="none" stroke="#54202C" stroke-opacity="0.16" stroke-width="2"/>
  <circle cx="519" cy="640" r="48" fill="none" stroke="#54202C" stroke-opacity="0.16" stroke-width="2"/>
  <circle cx="672" cy="611" r="51" fill="none" stroke="#54202C" stroke-opacity="0.16" stroke-width="2"/>
  <circle cx="737" cy="949" r="35" fill="none" stroke="#54202C" stroke-opacity="0.16" stroke-width="2"/>
  <circle cx="674" cy="571" r="37" fill="none" stroke="#54202C" stroke-opacity="0.16" stroke-width="2"/>
  <circle cx="433" cy="724" r="56" fill="none" stroke="#54202C" stroke-opacity="0.16" stroke-width="2"/>
  <circle cx="412" cy="532" r="43" fill="none" stroke="#54202C" stroke-opacity="0.16" stroke-width="2"/>
  <circle cx="673" cy="863" r="55" fill="none" stroke="#54202C" stroke-opacity="0.16" stroke-width="2"/>
  <circle cx="446" cy="103" r="49" fill="none" stroke="#54202C" stroke-opacity="0.16" stroke-width="2"/>
  <circle cx="274" cy="721" r="18" fill="none" stroke="#54202C" stroke-opacity="0.16" stroke-width="2"/>
  <circle cx="689" cy="290" r="36" fill="none" stroke="#54202C" stroke-opacity="0.16" stroke-width="2"/>
  <circle cx="393" cy="849" r="53" fill="none" stroke="#54202C" stroke-opacity="0.16" stroke-width="2"/>
  <circle cx="189" cy="508" r="51" fill="none" stroke="#54202C" stroke-opacity="0.16" stroke-width="2"/>
  <circle cx="161" cy="112" r="25" fill="none" stroke="#54202C" stroke-opacity="0.16" stroke-width="2"/>
  <circle cx="302" cy="366" r="32" fill="none" stroke="#54202C" stroke-opacity="0.16" stroke-width="2"/>
  <circle cx="484" cy="918" r="24" fill="none" stroke="#54202C" stroke-opacity="0.16" stroke-width="2"/>
  <circle cx="371" cy="738" r="37" fill="none" stroke="#54202C" stroke-opacity="0.16" stroke-width="2"/>
  <circle cx="404" cy="394" r="22" fill="none" stroke="#54202C" stroke-opacity="0.16" stroke-width="2"/>
  <circle cx="520" cy="192" r="41" fill="none" stroke="#54202C" stroke-opacity="0.16" stroke-width="2"/>
  <circle cx="767" cy="694" r="54" fill="none" stroke="#54202C" stroke-opacity="0.16" stroke-width="2"/>
  <circle cx="716" cy="368" r="32" fill="none" stroke="#54202C" stroke-opacity="0.16" stroke-width="2"/>
  <circle cx="525" cy="424" r="48" fill="none" stroke="#54202C" stroke-opacity="0.16" stroke-width="2"/>
  <circle cx="426" cy="203" r="26" fill="none" stroke="#54202C" stroke-opacity="0.16" stroke-width="2"/>
  <circle cx="404" cy="784" r="23" fill="none" stroke="#54202C" stroke-opacity="0.16" stroke-width="2"/>
  <circle cx="564" cy="928" r="24" fill="none" stroke="#54202C" stroke-opacity="0.16" stroke-width="2"/>
  <circle cx="730" cy="736" r="37" fill="none" stroke="#54202C" stroke-opacity="0.16" stroke-width="2"/>
  <circle cx="682" cy="283" r="55" fill="none" stroke="#54202C" stroke-opacity="0.16" stroke-width="2"/>
  <circle cx="80" cy="145" r="23" fill="none" stroke="#54202C" stroke-opacity="0.16" stroke-width="2"/>
  <circle cx="275" cy="145" r="20" fill="none" stroke="#54202C" stroke-opacity="0.16" stroke-width="2"/>
  <circle cx="534" cy="541" r="19" fill="none" stroke="#54202C" stroke-opacity="0.16" stroke-width="2"/>
  <circle cx="153" cy="62" r="43" fill="none" stroke="#54202C" stroke-opacity="0.16" stroke-width="2"/>
  <circle cx="733" cy="957" r="45" fill="none" stroke="#54202C" stroke-opacity="0.16" stroke-width="2"/>
  <circle cx="238" cy="783" r="23" fill="none" stroke="#54202C" stroke-opacity="0.16" stroke-width="2"/>
  <circle cx="393" cy="609" r="49" fill="none" stroke="#54202C" stroke-opacity="0.16" stroke-width="2"/>
  <circle cx="671" cy="630" r="27" fill="none" stroke="#54202C" stroke-opacity="0.16" stroke-width="2"/>
  <circle cx="398" cy="843" r="46" fill="none" stroke="#54202C" stroke-opacity="0.16" stroke-width="2"/>
  <circle cx="274" cy="707" r="45" fill="none" stroke="#54202C" stroke-opacity="0.16" stroke-width="2"/>
  <circle cx="137" cy="472" r="38" fill="none" stroke="#54202C" stroke-opacity="0.16" stroke-width="2"/>
  <circle cx="467" cy="564" r="21" fill="none" stroke="#54202C" stroke-opacity="0.16" stroke-width="2"/>
  <circle cx="131" cy="884" r="20" fill="none" stroke="#54202C" stroke-opacity="0.16" stroke-width="2"/>
  <circle cx="440" cy="157" r="18" fill="none" stroke="#54202C" stroke-opacity="0.16" stroke-width="2"/>
  <circle cx="293" cy="428" r="48" fill="none" stroke="#54202C" stroke-opacity="0.16" stroke-width="2"/>
  <circle cx="581" cy="297" r="29" fill="none" stroke="#54202C" stroke-opacity="0.16" stroke-width="2"/>
  <circle cx="719" cy="635" r="22" fill="none" stroke="#54202C" stroke-opacity="0.16" stroke-width="2"/>
  <circle cx="475" cy="99" r="24" fill="none" stroke="#54202C" stroke-opacity="0.16" stroke-width="2"/>
  <circle cx="635" cy="567" r="28" fill="none" stroke="#54202C" stroke-opacity="0.16" stroke-width="2"/>
  <circle cx="419" cy="876" r="48" fill="none" stroke="#54202C" stroke-opacity="0.16" stroke-width="2"/>
  <circle cx="447" cy="931" r="54" fill="none" stroke="#54202C" stroke-opacity="0.16" stroke-width="2"/>
  <circle cx="594" cy="940" r="49" fill="none" stroke="#54202C" stroke-opacity="0.16" stroke-width="2"/>
  <circle cx="219" cy="274" r="38" fill="none" stroke="#54202C" stroke-opacity="0.16" stroke-width="2"/>
  <circle cx="314" cy="627" r="24" fill="none" stroke="#54202C" stroke-opacity="0.16" stroke-width="2"/>
  <circle cx="663" cy="267" r="22" fill="none" stroke="#54202C" stroke-opacity="0.16" stroke-width="2"/>
  <circle cx="364" cy="645" r="25" fill="none" stroke="#54202C" stroke-opacity="0.16" stroke-width="2"/>
  <circle cx="352" cy="823" r="24" fill="none" stroke="#54202C" stroke-opacity="0.16" stroke-width="2"/>
  <circle cx="42" cy="388" r="54" fill="none" stroke="#54202C" stroke-opacity="0.16" stroke-width="2"/>
  <circle cx="289" cy="570" r="45" fill="none" stroke="#54202C" stroke-opacity="0.16" stroke-width="2"/>
  <circle cx="633" cy="212" r="27" fill="none" stroke="#54202C" stroke-opacity="0.16" stroke-width="2"/>
  <circle cx="613" cy="342" r="39" fill="none" stroke="#54202C" stroke-opacity="0.16" stroke-width="2"/>
  <circle cx="708" cy="780" r="49" fill="none" stroke="#54202C" stroke-opacity="0.16" stroke-width="2"/>
  <circle cx="138" cy="82" r="33" fill="none" stroke="#54202C" stroke-opacity="0.16" stroke-width="2"/>
  <circle cx="376" cy="675" r="21" fill="none" stroke="#54202C" stroke-opacity="0.16" stroke-width="2"/>
  <circle cx="384" cy="234" r="37" fill="none" stroke="#54202C" stroke-opacity="0.16" stroke-width="2"/>
  <circle cx="574" cy="527" r="53" fill="none" stroke="#54202C" stroke-opacity="0.16" stroke-width="2"/>
  <circle cx="725" cy="98" r="44" fill="none" stroke="#54202C" stroke-opacity="0.16" stroke-width="2"/>
  <circle cx="360" cy="548" r="44" fill="none" stroke="#54202C" stroke-opacity="0.16" stroke-width="2"/>
  <circle cx="41" cy="191" r="56" fill="none" stroke="#54202C" stroke-opacity="0.16" stroke-width="2"/>
  <circle cx="66" cy="760" r="29" fill="none" stroke="#54202C" stroke-opacity="0.16" stroke-width="2"/>
  <circle cx="505" cy="335" r="31" fill="none" stroke="#54202C" stroke-opacity="0.16" stroke-width="2"/>
  <circle cx="171" cy="241" r="52" fill="none" stroke="#54202C" stroke-opacity="0.16" stroke-width="2"/>
  <circle cx="476" cy="949" r="27" fill="none" stroke="#54202C" stroke-opacity="0.16" stroke-width="2"/>
  <circle cx="582" cy="892" r="19" fill="none" stroke="#54202C" stroke-opacity="0.16" stroke-width="2"/>
  <circle cx="154" cy="869" r="30" fill="none" stroke="#54202C" stroke-opacity="0.16" stroke-width="2"/>
  <circle cx="269" cy="231" r="33" fill="none" stroke="#54202C" stroke-opacity="0.16" stroke-width="2"/>
  <circle cx="630" cy="41" r="35" fill="none" stroke="#54202C" stroke-opacity="0.16" stroke-width="2"/>
  <circle cx="575" cy="573" r="45" fill="none" stroke="#54202C" stroke-opacity="0.16" stroke-width="2"/>
  <circle cx="591" cy="962" r="51" fill="none" stroke="#54202C" stroke-opacity="0.16" stroke-width="2"/>
  <circle cx="378" cy="939" r="46" fill="none" stroke="#54202C" stroke-opacity="0.16" stroke-width="2"/>
  <circle cx="256" cy="227" r="46" fill="none" stroke="#54202C" stroke-opacity="0.16" stroke-width="2"/>
  <circle cx="563" cy="161" r="40" fill="none" stroke="#54202C" stroke-opacity="0.16" stroke-width="2"/>
  <circle cx="343" cy="782" r="29" fill="none" stroke="#54202C" stroke-opacity="0.16" stroke-width="2"/>
  <circle cx="469" cy="795" r="44" fill="none" stroke="#54202C" stroke-opacity="0.16" stroke-width="2"/>
  <circle cx="544" cy="172" r="43" fill="none" stroke="#54202C" stroke-opacity="0.16" stroke-width="2"/>
  <circle cx="271" cy="33" r="27" fill="none" stroke="#54202C" stroke-opacity="0.16" stroke-width="2"/>
  <circle cx="629" cy="668" r="22" fill="none" stroke="#54202C" stroke-opacity="0.16" stroke-width="2"/>
  <circle cx="576" cy="583" r="54" fill="none" stroke="#54202C" stroke-opacity="0.16" stroke-width="2"/>
  <circle cx="529" cy="53" r="54" fill="none" stroke="#54202C" stroke-opacity="0.16" stroke-width="2"/>
  <circle cx="356" cy="265" r="24" fill="none" stroke="#54202C" stroke-opacity="0.16" stroke-width="2"/>
  <circle cx="305" cy="680" r="37" fill="none" stroke="#54202C" stroke-opacity="0.16" stroke-width="2"/>
  <circle cx="695" cy="173" r="38" fill="none" stroke="#54202C" stroke-opacity="0.16" stroke-width="2"/>
  <circle cx="394" cy="790" r="41" fill="none" stroke="#54202C" stroke-opacity="0.16" stroke-width="2"/>
  <circle cx="149" cy="897" r="22" fill="none" stroke="#54202C" stroke-opacity="0.16" stroke-width="2"/>
  <circle cx="618" cy="322" r="38" fill="none" stroke="#54202C" stroke-opacity="0.16" stroke-width="2"/>
  <circle cx="230" cy="312" r="38" fill="none" stroke="#54202C" stroke-opacity="0.16" stroke-width="2"/>
  <circle cx="349" cy="766" r="29" fill="none" stroke="#54202C" stroke-opacity="0.16" stroke-width="2"/>
  <circle cx="52" cy="95" r="45" fill="none" stroke="#54202C" stroke-opacity="0.16" stroke-width="2"/>
  <circle cx="677" cy="788" r="26" fill="none" stroke="#54202C" stroke-opacity="0.16" stroke-width="2"/>
  <circle cx="596" cy="47" r="51" fill="none" stroke="#54202C" stroke-opacity="0.16" stroke-width="2"/>
  <circle cx="442" cy="916" r="38" fill="none" stroke="#54202C" stroke-opacity="0.16" stroke-width="2"/>
  <circle cx="102" cy="176" r="38" fill="none" stroke="#54202C" stroke-opacity="0.16" stroke-width="2"/>
  <circle cx="479" cy="664" r="43" fill="none" stroke="#54202C" stroke-opacity="0.16" stroke-width="2"/>
  <circle cx="599" cy="622" r="55" fill="none" stroke="#54202C" stroke-opacity="0.16" stroke-width="2"/>
  <circle cx="488" cy="183" r="42" fill="none" stroke="#54202C" stroke-opacity="0.16" stroke-width="2"/>
  <circle cx="353" cy="795" r="50" fill="none" stroke="#54202C" stroke-opacity="0.16" stroke-width="2"/>
  <circle cx="448" cy="175" r="42" fill="none" stroke="#54202C" stroke-opacity="0.16" stroke-width="2"/>
  <circle cx="230" cy="527" r="41" fill="none" stroke="#54202C" stroke-opacity="0.16" stroke-width="2"/>

  <rect width="800" height="1000" fill="url(#v103)"/>
  <rect width="800" height="1000" filter="url(#n103)" opacity="0.14" style="mix-blend-mode:multiply"/>
</svg>
